<svg width="162" height="40" viewBox="0 0 162 40" fill="none" xmlns="http://www.w3.org/2000/svg">
<g clip-path="url(#clip0_281_4742)">
<path d="M94.7396 0H68.2604C64.2506 0 61 3.25263 61 7.26496V32.735C61 36.7474 64.2506 40 68.2604 40H94.7396C98.7494 40 102 36.7474 102 32.735V7.26496C102 3.25263 98.7494 0 94.7396 0Z" fill="#9E9E9E"/>
<path d="M80.8675 24.005H74.5142L73.221 28.0238C73.2036 28.0971 73.1611 28.162 73.1009 28.2073C73.0407 28.2526 72.9665 28.2754 72.8913 28.2717H69.6728C69.4894 28.2717 69.4251 28.1709 69.4798 27.9691L74.9806 12.1162C75.0353 11.9509 75.0922 11.7629 75.1514 11.552C75.2231 11.1849 75.2598 10.8117 75.2608 10.4375C75.2571 10.4113 75.2595 10.3846 75.2679 10.3594C75.2763 10.3343 75.2904 10.3115 75.3091 10.2927C75.3278 10.274 75.3507 10.2599 75.3758 10.2515C75.4009 10.2431 75.4276 10.2407 75.4538 10.2444H79.8271C79.9558 10.2444 80.0293 10.2905 80.0475 10.3828L86.2915 27.9897C86.3461 28.1731 86.2892 28.2649 86.1206 28.2649H82.5451C82.4836 28.2716 82.4218 28.2557 82.3712 28.2202C82.3206 28.1846 82.2846 28.1318 82.2701 28.0717L80.8675 24.005ZM75.5034 20.5367H79.8494C79.7355 20.1697 79.6073 19.7566 79.465 19.2973C79.3226 18.8381 79.1666 18.3475 78.9969 17.8256L78.5015 16.2563C78.3363 15.7332 78.1849 15.229 78.0471 14.7435C77.9093 14.258 77.7857 13.813 77.6764 13.4085H77.649C77.4942 14.1517 77.3015 14.8866 77.0716 15.6102C76.8142 16.4364 76.5528 17.2803 76.2875 18.1418C76.0221 19.0033 75.7607 19.8011 75.5034 20.535V20.5367Z" fill="white"/>
<path d="M89.9993 13.1624C89.719 13.1736 89.4394 13.1255 89.1789 13.0212C88.9184 12.9169 88.6828 12.7589 88.4875 12.5573C88.2926 12.3467 88.1413 12.0996 88.0422 11.8303C87.9431 11.561 87.8982 11.2748 87.9101 10.9881C87.8999 10.7041 87.9497 10.4213 88.0562 10.1579C88.1628 9.89457 88.3237 9.6567 88.5285 9.45986C88.7313 9.2651 88.9707 9.11255 89.2329 9.01102C89.495 8.9095 89.7747 8.86102 90.0557 8.86841C90.7163 8.86841 91.2345 9.06556 91.6103 9.45986C91.8001 9.66496 91.9476 9.90552 92.0443 10.1678C92.1411 10.43 92.1852 10.7088 92.174 10.9881C92.1857 11.2759 92.1394 11.5632 92.0378 11.8328C91.9363 12.1023 91.7816 12.3487 91.583 12.5573C91.3752 12.7623 91.1271 12.9219 90.8546 13.026C90.582 13.1302 90.2908 13.1766 89.9993 13.1624ZM88.1014 27.9966V14.8342C88.1014 14.6633 88.1748 14.5864 88.3218 14.5864H91.7043C91.8512 14.5864 91.9246 14.669 91.9246 14.8342V27.9966C91.9246 28.1801 91.8512 28.2718 91.7043 28.2718H88.3491C88.184 28.2707 88.1014 28.1784 88.1014 27.9949V27.9966Z" fill="white"/>
</g>
<g clip-path="url(#clip1_281_4742)">
<path d="M33.7394 0H7.26055C3.25066 0 0 3.25266 0 7.26502V32.735C0 36.7473 3.25066 40 7.26055 40H33.7394C37.7493 40 41 36.7473 41 32.735V7.26502C41 3.25266 37.7493 0 33.7394 0Z" fill="#9E9E9E"/>
<path d="M9.23242 28.0499V10.4631C9.23242 10.3349 9.28704 10.2746 9.39816 10.2746C9.69197 10.2746 9.96319 10.2746 10.3625 10.2614L11.6696 10.2331L13.1556 10.1992C13.6779 10.1904 14.1958 10.186 14.7094 10.186C16.1031 10.186 17.2765 10.36 18.2295 10.7081C19.0896 10.9995 19.8739 11.4791 20.5254 12.1121C21.0776 12.661 21.5043 13.3232 21.7759 14.0532C22.0305 14.7641 22.158 15.5143 22.1526 16.2694C22.1526 17.7381 21.8136 18.9493 21.1356 19.9029C20.4521 20.8587 19.4925 21.5821 18.3858 21.9759C17.2313 22.4075 15.9468 22.5526 14.5361 22.5526C14.1331 22.5526 13.8487 22.5482 13.6829 22.5394C13.5172 22.5306 13.2698 22.5262 12.9409 22.5262V28.0178C12.9456 28.0514 12.9424 28.0855 12.9317 28.1176C12.9209 28.1497 12.9029 28.1789 12.879 28.2028C12.8551 28.2267 12.8259 28.2448 12.7938 28.2555C12.7618 28.2663 12.7276 28.2694 12.6941 28.2647H9.42453C9.29646 28.2704 9.23242 28.1969 9.23242 28.0499ZM12.9484 13.5726V19.3092C13.187 19.3281 13.4067 19.3375 13.6076 19.3375H14.5154C15.1831 19.3351 15.8465 19.2289 16.4817 19.0228C17.0268 18.8609 17.5138 18.5456 17.8848 18.1144C18.2427 17.6923 18.4216 17.1049 18.4216 16.3523C18.4348 15.822 18.2963 15.2989 18.0223 14.8447C17.7333 14.4042 17.3157 14.0633 16.8263 13.8685C16.1871 13.6196 15.5042 13.5023 14.8186 13.5236C14.3779 13.5236 13.988 13.528 13.649 13.5368C13.31 13.5456 13.0765 13.5594 12.9484 13.5783V13.5726Z" fill="white"/>
<path d="M32.7956 18.2672C32.2787 18.0012 31.7281 17.8066 31.1589 17.6886C30.5318 17.5445 29.8907 17.4706 29.2473 17.4681C28.899 17.4588 28.5512 17.5007 28.2151 17.5925C28.0011 17.6403 27.8109 17.7625 27.6784 17.9374C27.5888 18.0768 27.5411 18.239 27.5409 18.4048C27.546 18.566 27.6043 18.7211 27.7066 18.8457C27.8675 19.0339 28.064 19.1882 28.2848 19.2999C28.6772 19.5117 29.0816 19.7004 29.4959 19.8653C30.4192 20.1742 31.3014 20.5944 32.1232 21.1166C32.6831 21.4699 33.1465 21.9569 33.4717 22.5338C33.7453 23.0803 33.8823 23.6849 33.871 24.2959C33.8858 25.0992 33.6559 25.888 33.2118 26.5574C32.734 27.239 32.0704 27.7689 31.3002 28.0839C30.4652 28.4508 29.4337 28.6342 28.2057 28.6342C27.4254 28.642 26.6465 28.5681 25.8816 28.4137C25.2791 28.3031 24.6927 28.1183 24.1357 27.8634C24.0764 27.8318 24.0272 27.7841 23.9939 27.7257C23.9606 27.6674 23.9444 27.6008 23.9473 27.5336V24.5692C23.9443 24.5401 23.9491 24.5107 23.9614 24.4842C23.9737 24.4576 23.9929 24.4349 24.017 24.4184C24.0405 24.4051 24.0675 24.3993 24.0944 24.4016C24.1213 24.404 24.1468 24.4144 24.1677 24.4316C24.8228 24.8208 25.5345 25.1056 26.2771 25.2759C26.9339 25.4408 27.6077 25.5287 28.2848 25.5378C28.9264 25.5378 29.3985 25.4556 29.7012 25.291C29.8379 25.2283 29.9536 25.1273 30.0341 25.0002C30.1147 24.8731 30.1567 24.7253 30.1551 24.5748C30.1434 24.4363 30.1001 24.3022 30.0286 24.183C29.9571 24.0637 29.8593 23.9625 29.7426 23.887C29.4676 23.6671 28.9082 23.4007 28.0645 23.0879C27.2011 22.7872 26.3825 22.3706 25.6311 21.8497C25.0937 21.4754 24.6512 20.9803 24.3391 20.4043C24.0685 19.8622 23.9316 19.2632 23.9398 18.6573C23.9369 17.926 24.137 17.2083 24.518 16.5843C24.9504 15.9002 25.5711 15.3557 26.3054 15.0163C27.1115 14.613 28.1197 14.4113 29.3301 14.4113C30.0387 14.4055 30.7465 14.4559 31.4471 14.5621C31.9547 14.6267 32.451 14.7611 32.9218 14.9616C32.9592 14.9722 32.9937 14.9913 33.0224 15.0175C33.0512 15.0436 33.0735 15.0761 33.0875 15.1124C33.1065 15.1799 33.116 15.2496 33.1158 15.3197V18.0995C33.1174 18.1319 33.1107 18.1642 33.0961 18.1933C33.0816 18.2223 33.0598 18.2471 33.0329 18.2653C32.9962 18.284 32.9557 18.2939 32.9145 18.2942C32.8733 18.2946 32.8326 18.2853 32.7956 18.2672Z" fill="white"/>
</g>
<path d="M142.622 40H141.44C141.385 39.9903 141.329 39.9903 141.274 40C140.638 40 140.016 39.9169 139.394 39.8339C138.221 39.6858 137.064 39.4309 135.937 39.0725C134.035 38.4644 132.234 37.5755 130.593 36.4354C127.26 34.1138 124.709 30.8336 123.279 27.0289C122.592 25.2083 122.18 23.2954 122.055 21.3532C122.054 21.2447 122.035 21.1372 122 21.0348V18.9583C122.033 18.8672 122.052 18.7715 122.055 18.6745C122.055 18.2038 122.131 17.7401 122.194 17.2902C122.497 15.0714 123.175 12.9203 124.198 10.9292C125.738 7.88762 128.03 5.2914 130.855 3.38793C133.681 1.48446 136.947 0.337176 140.341 0.0553847C140.572 0.0562814 140.804 0.0377472 141.032 0H143.058C143.213 0.0263185 143.37 0.0379186 143.528 0.0346207C144.33 0.100356 145.129 0.20895 145.92 0.359937C148.394 0.8442 150.752 1.79809 152.868 3.17011C154.52 4.23334 156.006 5.53477 157.278 7.03236C159.522 9.66436 161.04 12.8378 161.682 16.2381C161.876 17.2118 161.982 18.2009 162 19.1936C162 19.2629 162 19.3321 162 19.3944V20.578C161.992 20.6562 161.992 20.735 162 20.8133C162 21.0071 162 21.194 162 21.3878C161.912 22.6045 161.718 23.8112 161.419 24.9939C160.359 29.0958 158.024 32.7538 154.75 35.439C151.477 38.1241 147.435 39.6972 143.21 39.9308C143.009 39.9308 142.802 39.9308 142.595 39.9931L142.622 40Z" fill="#9E9E9E"/>
<path d="M136.817 11.6836C136.812 12.0792 136.865 12.4734 136.976 12.8534C137.191 13.6035 137.512 14.319 137.93 14.9783C138.86 16.4505 139.981 17.7934 141.262 18.9721C141.368 19.0712 141.49 19.153 141.621 19.2143C141.684 19.2459 141.752 19.2624 141.822 19.2624C141.892 19.2624 141.96 19.2459 142.022 19.2143C142.154 19.1561 142.271 19.0713 142.368 18.9651C142.804 18.5152 143.232 18.0653 143.647 17.5808C144.232 16.9218 144.776 16.2284 145.279 15.5043C145.743 14.8465 146.133 14.1383 146.44 13.3933C146.753 12.6557 146.872 11.8503 146.786 11.0537C146.656 9.75946 146.052 8.55896 145.092 7.68292C144.565 7.1757 143.926 6.79937 143.227 6.58418C142.529 6.369 141.789 6.32097 141.068 6.44395C139.859 6.6684 138.768 7.31557 137.991 8.2701C137.213 9.22464 136.8 10.4245 136.824 11.6559L136.817 11.6836Z" fill="white"/>
<path d="M149.585 29.9912C149.246 29.9963 148.907 29.9614 148.576 29.8874C147.564 29.6962 146.651 29.1547 145.997 28.3577C145.592 27.8507 145.24 27.3033 144.946 26.7242C144.603 26.0411 144.305 25.3358 144.054 24.6131C143.743 23.7435 143.485 22.856 143.28 21.9552C143.232 21.854 143.208 21.7424 143.212 21.6302C143.216 21.518 143.248 21.4084 143.304 21.311C143.359 21.2135 143.438 21.1312 143.533 21.071C143.627 21.0108 143.735 20.9745 143.847 20.9654C144.538 20.7439 145.264 20.5501 145.99 20.384C147.184 20.1029 148.408 19.9727 149.633 19.9964C149.984 20.0096 150.332 20.0466 150.677 20.1071C151.652 20.2763 152.544 20.763 153.215 21.4915C153.789 22.0558 154.216 22.7535 154.458 23.5226C154.699 24.2917 154.747 25.1084 154.597 25.9005C154.38 27.0657 153.757 28.1161 152.839 28.865C151.922 29.6139 150.769 30.013 149.585 29.9912Z" fill="white"/>
<path d="M134.03 29.9912C134.369 29.9963 134.708 29.9614 135.039 29.8874C136.051 29.6962 136.964 29.1547 137.618 28.3577C138.023 27.8507 138.375 27.3033 138.669 26.7242C139.012 26.0411 139.31 25.3358 139.56 24.6131C139.872 23.7435 140.13 22.856 140.335 21.9552C140.383 21.854 140.407 21.7424 140.403 21.6302C140.398 21.518 140.367 21.4084 140.311 21.311C140.256 21.2135 140.177 21.1312 140.082 21.071C139.988 21.0108 139.88 20.9745 139.768 20.9654C139.077 20.7439 138.351 20.5501 137.625 20.384C136.431 20.1029 135.207 19.9727 133.981 19.9964C133.631 20.0096 133.283 20.0466 132.938 20.1071C131.963 20.2763 131.071 20.763 130.4 21.4915C129.826 22.0558 129.399 22.7535 129.157 23.5226C128.916 24.2917 128.868 25.1084 129.018 25.9005C129.235 27.0657 129.858 28.1161 130.775 28.865C131.693 29.6139 132.846 30.013 134.03 29.9912Z" fill="white"/>
<defs>
<clipPath id="clip0_281_4742">
<rect width="41" height="40" fill="white" transform="translate(61)"/>
</clipPath>
<clipPath id="clip1_281_4742">
<rect width="41" height="40" fill="white"/>
</clipPath>
</defs>
</svg>
