<svg width="231" height="40" viewBox="0 0 231 40" fill="none" xmlns="http://www.w3.org/2000/svg">
<g clip-path="url(#clip0_281_4741)">
<path d="M33.7396 0H7.26042C3.2506 0 0 3.25263 0 7.26496V32.735C0 36.7474 3.2506 40 7.26042 40H33.7396C37.7494 40 41 36.7474 41 32.735V7.26496C41 3.25263 37.7494 0 33.7396 0Z" fill="#9E9E9E"/>
<path d="M16.472 23.9317H10.117L8.8238 27.9573C8.80636 28.0306 8.76386 28.0955 8.70365 28.1408C8.64344 28.186 8.56931 28.2088 8.49409 28.2052H5.2773C5.09394 28.2052 5.0296 28.1043 5.08426 27.9026L10.5919 12.1163C10.6466 11.9453 10.7013 11.7898 10.7628 11.5778C10.8346 11.2106 10.8712 10.8374 10.8721 10.4633C10.8684 10.437 10.8708 10.4103 10.8792 10.3852C10.8876 10.3601 10.9017 10.3372 10.9205 10.3185C10.9392 10.2998 10.962 10.2856 10.9871 10.2772C11.0122 10.2689 11.0389 10.2664 11.0651 10.2701H15.4385C15.566 10.2701 15.6395 10.3163 15.6588 10.4086L21.9028 27.9299C21.9575 28.1134 21.9005 28.2052 21.732 28.2052H18.1496C18.0881 28.2119 18.0263 28.196 17.9757 28.1604C17.9251 28.1249 17.8891 28.0721 17.8746 28.012L16.472 23.9317ZM11.1044 20.5368H15.4504C15.3365 20.1698 15.2084 19.7567 15.0661 19.2975C14.9237 18.8382 14.7677 18.3476 14.598 17.8257L14.1025 16.2564C13.9374 15.7334 13.7859 15.2285 13.6481 14.7419C13.5103 14.2553 13.3868 13.8103 13.2774 13.4069H13.2501C13.0954 14.1502 12.9027 14.885 12.6727 15.6086C12.4153 16.4348 12.1539 17.2787 11.8886 18.1402C11.6232 19.0017 11.3618 19.8006 11.1044 20.5368Z" fill="white"/>
<path d="M32.0109 22.3642H26.5921C26.6585 22.9006 26.8366 23.4171 27.1148 23.8804C27.4235 24.337 27.8587 24.6935 28.367 24.9061C29.0566 25.2047 29.8025 25.3511 30.5537 25.3351C31.1494 25.3236 31.7429 25.2584 32.3269 25.1402C32.8497 25.0695 33.3619 24.9358 33.8525 24.7419C33.9447 24.6684 33.9909 24.7146 33.9909 24.8804V27.4941C33.9956 27.5654 33.9815 27.6368 33.9499 27.7009C33.9185 27.7506 33.8765 27.7926 33.8269 27.824C33.2816 28.0672 32.7075 28.2395 32.1185 28.3368C31.3218 28.4879 30.512 28.5583 29.7012 28.5471C28.3995 28.5471 27.3084 28.3454 26.4281 27.9419C25.5962 27.5753 24.8614 27.0192 24.2824 26.318C23.7419 25.6574 23.3398 24.8947 23.1002 24.0753C22.863 23.2664 22.7428 22.4277 22.7432 21.5847C22.7409 20.664 22.885 19.7489 23.1703 18.8736C23.4448 18.0194 23.879 17.2253 24.4498 16.5334C25.0129 15.8498 25.7168 15.2958 26.5135 14.9095C27.3198 14.5146 28.2731 14.3744 29.3732 14.3744C30.2858 14.3513 31.1923 14.5299 32.028 14.8975C32.7315 15.1989 33.3504 15.6685 33.8303 16.265C34.2835 16.8463 34.6305 17.5031 34.8553 18.2052C35.0719 18.8815 35.1831 19.5873 35.185 20.2975C35.185 20.7009 35.1713 21.0679 35.144 21.3984C35.1166 21.7288 35.0939 21.9676 35.0757 22.1146C35.0685 22.1753 35.0394 22.2314 34.9937 22.272C34.948 22.3127 34.8891 22.3351 34.8279 22.3351C34.7141 22.3351 34.5261 22.3488 34.2642 22.3761C34.0022 22.4035 33.672 22.4217 33.2734 22.4308C32.8685 22.4325 32.4585 22.3642 32.0109 22.3642ZM26.5921 19.8565H30.1949C30.6346 19.8565 30.9603 19.8519 31.1721 19.8428C31.3134 19.829 31.45 19.7841 31.5719 19.7112V19.5402C31.5665 19.3252 31.5297 19.1121 31.4625 18.9078C31.3146 18.4393 31.0174 18.0322 30.6163 17.7488C30.2152 17.4654 29.7324 17.3213 29.2417 17.3385C28.7775 17.3093 28.3148 17.4161 27.9104 17.646C27.5059 17.8758 27.1772 18.2186 26.9645 18.6325C26.775 19.0183 26.6493 19.4322 26.5921 19.8582V19.8565Z" fill="white"/>
</g>
<path d="M79.3225 16.526L84.5508 22.1637C84.7681 22.3811 84.9004 22.6693 84.9004 22.9716L84.4311 34.1512C84.4185 35.0299 84.9981 35.7291 85.828 35.4393C90.7666 33.7165 93.7902 30.9937 95.2847 27.4409C95.502 26.9354 95.4406 26.3574 95.0674 25.959L90.5146 21.1039C90.165 20.7433 89.9729 20.2614 89.9729 19.7543L89.9366 17.0567C89.9366 16.3574 90.5036 15.8031 91.2012 15.8031L94.8516 15.8519C96.5744 15.8519 96.7193 15.2141 96.4658 14.5149C94.7666 9.79209 91.6957 6.45666 87.0217 4.69761C86.491 4.49288 85.913 4.86611 85.8894 5.43304L85.5886 10.1905C85.565 10.7086 85.1429 11.1055 84.6374 11.1055L82.0831 11.0929C81.4091 11.0929 80.8296 10.7669 80.554 10.4913L75.3855 5.3228C75.0721 5.02202 74.6138 4.92595 74.217 5.10548C70.0736 6.99682 67.2296 10.0567 65.5681 14.3811C65.3146 15.0551 65.8579 15.7669 66.5807 15.7669L77.6988 15.8393C78.3004 15.863 78.891 16.1039 79.3256 16.526H79.3225ZM82.9713 13.5512C83.6815 12.8645 85.3807 13.2015 86.5256 14.3826C87.6579 15.5637 88.3445 17.2378 87.2721 18.1291C86.513 18.7559 85.261 18.526 84.0201 17.4551C82.6343 16.274 82.165 14.3354 82.9729 13.5527L82.9713 13.5512Z" fill="#9E9E9E"/>
<circle cx="81" cy="20" r="18.8661" stroke="#9E9E9E" stroke-width="2.26772"/>
<path d="M152.738 22.7106C152.311 24.4391 151.496 26.048 150.356 27.4157C149.216 28.7834 147.779 29.8741 146.155 30.6054L144.242 28.4826L141.02 31.6931C139.19 31.6711 137.39 31.2285 135.758 30.3995C134.126 29.5705 132.708 28.3773 131.611 26.9124C131.954 27.0169 132.307 27.0817 132.665 27.1054C132.811 27.1282 132.96 27.1168 133.102 27.0721C133.243 27.0274 133.371 26.9505 133.478 26.8477C133.584 26.7448 133.665 26.6187 133.714 26.4792C133.764 26.3397 133.78 26.1908 133.762 26.044V17.3861C133.769 17.1625 133.724 16.9403 133.629 16.7376C133.535 16.5349 133.394 16.3573 133.218 16.2194C133.041 16.0814 132.836 15.9859 132.616 15.9403C132.397 15.8946 132.171 15.9001 131.954 15.9563C130.462 16.2984 129.268 19.9826 129.268 19.9826C129.253 18.277 129.613 16.5889 130.321 15.037C131.029 13.4852 132.069 12.1072 133.367 11.0001C135.083 9.53045 137.179 8.57295 139.414 8.23694C138.712 8.58184 138.109 9.10059 137.663 9.74389C137.218 10.3872 136.944 11.1337 136.869 11.9124C136.869 13.9387 138.098 13.6668 138.466 13.3948V25.0791C138.527 25.2261 138.607 25.3646 138.703 25.4913C138.868 25.7132 139.082 25.8932 139.329 26.0167C139.576 26.1401 139.849 26.2036 140.125 26.2019C141.354 26.2019 142.96 24.8071 142.96 24.8071V15.3948C142.929 14.8889 142.78 14.3972 142.526 13.9587C142.271 13.5202 141.918 13.1469 141.494 12.8685C142.337 12.7458 143.195 12.9429 143.899 13.4212C144.095 13.1825 144.303 12.9541 144.522 12.7369C146.32 10.9189 148.656 9.72851 151.184 9.34221C151.184 9.34221 147.673 12.0527 147.673 15.7019C147.673 18.4124 147.744 25.0176 147.744 25.0176C149.078 26.2633 151 24.4738 152.738 22.7106Z" fill="#9E9E9E"/>
<path d="M161.023 20C161.023 23.9538 159.85 27.8189 157.654 31.1069C155.457 34.3949 152.334 36.9584 148.68 38.4734C145.026 39.9884 141.004 40.387 137.124 39.6189C133.243 38.8507 129.677 36.9503 126.877 34.1576C124.076 31.3649 122.167 27.8054 121.39 23.9287C120.613 20.0519 121.003 16.032 122.511 12.3767C124.019 8.72144 126.577 5.59484 129.862 3.39194C133.147 1.18905 137.012 0.00871862 140.968 4.80972e-05C143.599 -0.00571974 146.206 0.507327 148.639 1.50984C151.072 2.51235 153.283 3.98463 155.146 5.84237C157.009 7.70012 158.487 9.90684 159.496 12.3362C160.504 14.7656 161.023 17.3699 161.023 20ZM140.968 38.6229C144.655 38.6315 148.262 37.5467 151.332 35.5057C154.402 33.4647 156.797 30.5592 158.214 27.1571C159.631 23.755 160.006 20.0092 159.292 16.3939C158.578 12.7785 156.807 9.45615 154.203 6.84731C151.599 4.23847 148.279 2.46047 144.663 1.73835C141.047 1.01622 137.298 1.38242 133.891 2.79064C130.484 4.19886 127.571 6.58578 125.521 9.64923C123.472 12.7127 122.378 16.3149 122.378 20C122.378 24.9315 124.335 29.6617 127.82 33.1529C131.305 36.6441 136.033 38.6112 140.968 38.6229Z" fill="#9E9E9E"/>
<path d="M206.702 22.4917C206.754 21.6981 206.968 20.9235 207.331 20.2158C207.694 19.5082 208.198 18.8826 208.812 18.3776C210.092 17.3282 211.696 16.7548 213.351 16.7548C215.006 16.7548 216.61 17.3282 217.889 18.3776C218.503 18.8828 219.008 19.5085 219.371 20.2161C219.734 20.9237 219.948 21.6981 220 22.4917C220.039 23.3124 219.9 24.132 219.594 24.8943C219.287 25.6567 218.82 26.344 218.224 26.9093C216.902 28.145 215.16 28.8324 213.351 28.8324C211.541 28.8324 209.8 28.145 208.478 26.9093C207.881 26.3443 207.414 25.6571 207.107 24.8947C206.801 24.1322 206.662 23.3125 206.702 22.4917Z" fill="#9E9E9E"/>
<path d="M196.113 25.8104C196.172 26.7834 196.347 27.7458 196.636 28.6768C197.303 30.7788 198.421 32.7095 199.913 34.3337C201.509 36.0889 203.458 37.4878 205.631 38.4394C208 39.4729 210.557 40.0043 213.141 40C215.726 39.9956 218.281 39.4556 220.646 38.4141C222.819 37.4542 224.766 36.0499 226.362 34.2915C227.848 32.6605 228.962 30.7267 229.628 28.6234C230.269 26.5863 230.443 24.4311 230.139 22.3174C229.847 20.2962 229.135 18.3586 228.048 16.6296C227.044 15.0079 225.756 13.5801 224.246 12.4143L208.863 0.611561L208.824 0.580654C207.815 -0.194956 206.118 -0.192145 205.008 0.580654C203.898 1.35345 203.757 2.6658 204.755 3.48356L211.17 8.70207L191.614 8.72173H191.589C189.973 8.72173 188.419 9.78398 188.11 11.1244C187.801 12.4649 188.891 13.6227 190.572 13.6283L200.475 13.6227L182.787 27.1987L182.72 27.2492C181.051 28.5279 180.511 30.6524 181.562 31.9956C182.613 33.3389 184.898 33.3642 186.584 31.9956L196.237 24.0962C196.163 24.6648 196.122 25.2371 196.113 25.8104ZM220.919 29.3822C218.838 31.4179 216.045 32.56 213.134 32.5647C210.223 32.5694 207.426 31.4364 205.339 29.4074C204.399 28.464 203.674 27.3292 203.212 26.0802C202.778 24.8908 202.611 23.6206 202.723 22.3595C202.828 21.1305 203.191 19.9375 203.788 18.858C204.389 17.7785 205.193 16.8244 206.154 16.0479C208.137 14.4762 210.591 13.6193 213.121 13.6157C215.651 13.6121 218.108 14.4621 220.095 16.0282C221.056 16.8044 221.859 17.7585 222.459 18.8384C223.057 19.9165 223.422 21.1086 223.529 22.337C223.64 23.5972 223.473 24.8662 223.04 26.0549C222.579 27.3029 221.856 28.4375 220.919 29.3822Z" fill="#9E9E9E"/>
<defs>
<clipPath id="clip0_281_4741">
<rect width="41" height="40" fill="white"/>
</clipPath>
</defs>
</svg>
