<svg width="41" height="40" viewBox="0 0 41 40" fill="none" xmlns="http://www.w3.org/2000/svg">
<g clip-path="url(#clip0_3311_520)">
<path d="M33.7396 0H7.26042C3.2506 0 0 3.25263 0 7.26496V32.735C0 36.7474 3.2506 40 7.26042 40H33.7396C37.7494 40 41 36.7474 41 32.735V7.26496C41 3.25263 37.7494 0 33.7396 0Z" fill="#9E9E9E"/>
<path d="M16.472 23.9317H10.117L8.8238 27.9573C8.80636 28.0306 8.76386 28.0955 8.70365 28.1408C8.64344 28.186 8.56931 28.2088 8.49409 28.2052H5.2773C5.09394 28.2052 5.0296 28.1043 5.08426 27.9026L10.5919 12.1163C10.6466 11.9453 10.7013 11.7898 10.7628 11.5778C10.8346 11.2106 10.8712 10.8374 10.8721 10.4633C10.8684 10.437 10.8708 10.4103 10.8792 10.3852C10.8876 10.3601 10.9017 10.3372 10.9205 10.3185C10.9392 10.2998 10.962 10.2856 10.9871 10.2772C11.0122 10.2689 11.0389 10.2664 11.0651 10.2701H15.4385C15.566 10.2701 15.6395 10.3163 15.6588 10.4086L21.9028 27.9299C21.9575 28.1134 21.9005 28.2052 21.732 28.2052H18.1496C18.0881 28.2119 18.0263 28.196 17.9757 28.1604C17.9251 28.1249 17.8891 28.0721 17.8746 28.012L16.472 23.9317ZM11.1044 20.5368H15.4504C15.3365 20.1698 15.2084 19.7567 15.0661 19.2975C14.9237 18.8382 14.7677 18.3476 14.598 17.8257L14.1025 16.2564C13.9374 15.7334 13.7859 15.2285 13.6481 14.7419C13.5103 14.2553 13.3868 13.8103 13.2774 13.4069H13.2501C13.0954 14.1502 12.9027 14.885 12.6727 15.6086C12.4153 16.4348 12.1539 17.2787 11.8886 18.1402C11.6232 19.0017 11.3618 19.8006 11.1044 20.5368Z" fill="white"/>
<path d="M32.0109 22.3641H26.5921C26.6585 22.9005 26.8366 23.4171 27.1148 23.8804C27.4235 24.3369 27.8587 24.6934 28.367 24.906C29.0566 25.2047 29.8025 25.351 30.5537 25.335C31.1494 25.3236 31.7429 25.2584 32.3269 25.1402C32.8497 25.0695 33.3619 24.9357 33.8525 24.7419C33.9447 24.6684 33.9909 24.7145 33.9909 24.8803V27.494C33.9956 27.5654 33.9815 27.6367 33.9499 27.7009C33.9185 27.7505 33.8765 27.7926 33.8269 27.8239C33.2816 28.0671 32.7075 28.2395 32.1185 28.3368C31.3218 28.4878 30.512 28.5582 29.7012 28.547C28.3995 28.547 27.3084 28.3453 26.4281 27.9419C25.5962 27.5752 24.8614 27.0191 24.2824 26.318C23.7419 25.6574 23.3398 24.8946 23.1002 24.0752C22.863 23.2663 22.7428 22.4276 22.7432 21.5846C22.7409 20.664 22.885 19.7488 23.1703 18.8735C23.4448 18.0194 23.879 17.2252 24.4498 16.5333C25.0129 15.8497 25.7168 15.2958 26.5135 14.9094C27.3198 14.5145 28.2731 14.3744 29.3732 14.3744C30.2858 14.3512 31.1923 14.5298 32.028 14.8974C32.7315 15.1989 33.3504 15.6685 33.8303 16.265C34.2835 16.8462 34.6305 17.5031 34.8553 18.2051C35.0719 18.8815 35.1831 19.5872 35.185 20.2974C35.185 20.7009 35.1713 21.0678 35.144 21.3983C35.1166 21.7288 35.0939 21.9675 35.0757 22.1145C35.0685 22.1753 35.0394 22.2313 34.9937 22.2719C34.948 22.3126 34.8891 22.335 34.8279 22.3351C34.7141 22.3351 34.5261 22.3487 34.2642 22.3761C34.0022 22.4034 33.672 22.4217 33.2734 22.4308C32.8685 22.4325 32.4585 22.3641 32.0109 22.3641ZM26.5921 19.8564H30.1949C30.6346 19.8564 30.9603 19.8519 31.1721 19.8427C31.3134 19.829 31.45 19.784 31.5719 19.7111V19.5402C31.5665 19.3251 31.5297 19.112 31.4625 18.9077C31.3146 18.4392 31.0174 18.0322 30.6163 17.7488C30.2152 17.4654 29.7324 17.3212 29.2417 17.3385C28.7775 17.3092 28.3148 17.4161 27.9104 17.6459C27.5059 17.8757 27.1772 18.2186 26.9645 18.6325C26.775 19.0182 26.6493 19.4321 26.5921 19.8581V19.8564Z" fill="white"/>
</g>
<defs>
<clipPath id="clip0_3311_520">
<rect width="41" height="40" fill="white"/>
</clipPath>
</defs>
</svg>
