<svg width="40" height="40" viewBox="0 0 40 40" fill="none" xmlns="http://www.w3.org/2000/svg">
<path d="M18.3225 16.526L23.5508 22.1637C23.7681 22.3811 23.9004 22.6693 23.9004 22.9716L23.4311 34.1512C23.4185 35.0299 23.9981 35.7291 24.828 35.4393C29.7666 33.7165 32.7902 30.9937 34.2847 27.4409C34.502 26.9354 34.4406 26.3574 34.0674 25.959L29.5146 21.1039C29.165 20.7433 28.9729 20.2614 28.9729 19.7543L28.9366 17.0567C28.9366 16.3574 29.5036 15.8031 30.2012 15.8031L33.8516 15.8519C35.5744 15.8519 35.7193 15.2141 35.4658 14.5149C33.7666 9.79209 30.6957 6.45666 26.0217 4.69761C25.491 4.49288 24.913 4.86611 24.8894 5.43304L24.5886 10.1905C24.565 10.7086 24.1429 11.1055 23.6374 11.1055L21.0831 11.0929C20.4091 11.0929 19.8296 10.7669 19.554 10.4913L14.3855 5.3228C14.0721 5.02202 13.6138 4.92595 13.217 5.10548C9.07365 6.99682 6.22955 10.0567 4.56814 14.3811C4.31459 15.0551 4.8579 15.7669 5.58073 15.7669L16.6988 15.8393C17.3004 15.863 17.891 16.1039 18.3256 16.526H18.3225ZM21.9713 13.5512C22.6815 12.8645 24.3807 13.2015 25.5256 14.3826C26.6579 15.5637 27.3445 17.2378 26.2721 18.1291C25.513 18.7559 24.261 18.526 23.0201 17.4551C21.6343 16.274 21.165 14.3354 21.9729 13.5527L21.9713 13.5512Z" fill="#9E9E9E"/>
<circle cx="20" cy="20" r="18.8661" stroke="#9E9E9E" stroke-width="2.26772"/>
</svg>
