<svg width="41" height="40" viewBox="0 0 41 40" fill="none" xmlns="http://www.w3.org/2000/svg">
<path d="M31.7377 22.7106C31.3108 24.439 30.4964 26.0479 29.356 27.4156C28.2156 28.7833 26.7791 29.874 25.1549 30.6053L23.2415 28.4825L20.0204 31.693C18.1902 31.671 16.3896 31.2284 14.758 30.3994C13.1265 29.5704 11.7076 28.3773 10.6115 26.9123C10.954 27.0169 11.3074 27.0816 11.6647 27.1053C11.8109 27.1281 11.9604 27.1167 12.1015 27.072C12.2426 27.0273 12.3714 26.9505 12.4777 26.8476C12.584 26.7447 12.665 26.6186 12.7143 26.4791C12.7636 26.3397 12.7799 26.1907 12.7618 26.0439V17.386C12.7694 17.1625 12.7241 16.9403 12.6295 16.7376C12.5349 16.5348 12.3938 16.3573 12.2177 16.2193C12.0414 16.0814 11.8357 15.9859 11.6165 15.9402C11.3973 15.8946 11.1705 15.9001 10.9538 15.9562C9.46168 16.2983 8.26801 19.9825 8.26801 19.9825C8.25327 18.2769 8.6126 16.5888 9.32074 15.037C10.0289 13.4851 11.0686 12.1072 12.3669 11C14.0835 9.53039 16.179 8.57289 18.4142 8.23688C17.7116 8.58178 17.1089 9.10053 16.6634 9.74383C16.2179 10.3871 15.9444 11.1336 15.8689 11.9123C15.8689 13.9386 17.0977 13.6667 17.4663 13.3948V25.079C17.5273 25.226 17.6069 25.3646 17.7033 25.4913C17.8676 25.7132 18.0821 25.8931 18.3291 26.0166C18.5762 26.1401 18.8489 26.2035 19.1251 26.2018C20.3539 26.2018 21.9601 24.8071 21.9601 24.8071V15.3948C21.9289 14.8888 21.7802 14.3971 21.5258 13.9586C21.2713 13.5201 20.9182 13.1468 20.4944 12.8685C21.3369 12.7457 22.1949 12.9429 22.8992 13.4211C23.095 13.1824 23.303 12.954 23.5224 12.7369C25.32 10.9189 27.6561 9.72845 30.1841 9.34215C30.1841 9.34215 26.6733 12.0527 26.6733 15.7018C26.6733 18.4123 26.7436 25.0176 26.7436 25.0176C28.0777 26.2632 29.9998 24.4737 31.7377 22.7106Z" fill="#9E9E9E"/>
<path d="M40.023 20C40.023 23.9538 38.8505 27.8189 36.6535 31.1069C34.4566 34.3949 31.3338 36.9584 27.6797 38.4734C24.0256 39.9884 20.0042 40.387 16.1236 39.6189C12.2429 38.8507 8.67715 36.9503 5.87675 34.1576C3.07635 31.3649 1.16699 27.8054 0.38989 23.9287C-0.387208 20.0519 0.00283337 16.032 1.51073 12.3767C3.01863 8.72144 5.57671 5.59484 8.86181 3.39194C12.1469 1.18905 16.0116 0.00871862 19.9676 4.80972e-05C22.5993 -0.00571974 25.2062 0.507327 27.6392 1.50984C30.0722 2.51235 32.2834 3.98463 34.1463 5.84237C36.0092 7.70012 37.4871 9.90684 38.4956 12.3362C39.504 14.7656 40.023 17.3699 40.023 20ZM19.9676 38.6229C23.6549 38.6315 27.2618 37.5467 30.3318 35.5057C33.4018 33.4647 35.797 30.5592 37.214 27.1571C38.6311 23.755 39.0064 20.0092 38.2923 16.3939C37.5783 12.7785 35.8071 9.45615 33.2029 6.84731C30.5987 4.23847 27.2787 2.46047 23.6629 1.73835C20.0472 1.01622 16.2983 1.38242 12.891 2.79064C9.48356 4.19886 6.5708 6.58578 4.52138 9.64923C2.47195 12.7127 1.37801 16.3149 1.378 20C1.37798 24.9315 3.33512 29.6617 6.8201 33.1529C10.3051 36.6441 15.0333 38.6112 19.9676 38.6229Z" fill="#9E9E9E"/>
</svg>
