<svg width="50" height="40" viewBox="0 0 50 40" fill="none" xmlns="http://www.w3.org/2000/svg">
<path d="M25.7019 22.4917C25.7536 21.6981 25.9676 20.9235 26.3306 20.2158C26.6936 19.5082 27.1979 18.8826 27.8124 18.3776C29.0921 17.3282 30.6959 16.7548 32.3508 16.7548C34.0058 16.7548 35.6096 17.3282 36.8893 18.3776C37.5035 18.8828 38.0076 19.5085 38.3706 20.2161C38.7336 20.9237 38.9477 21.6981 38.9997 22.4917C39.0388 23.3124 38.9003 24.132 38.5938 24.8943C38.2873 25.6567 37.82 26.344 37.2237 26.9093C35.902 28.145 34.1602 28.8324 32.3508 28.8324C30.5415 28.8324 28.7997 28.145 27.478 26.9093C26.8812 26.3443 26.4136 25.6571 26.107 24.8947C25.8005 24.1322 25.6623 23.3125 25.7019 22.4917Z" fill="#9E9E9E"/>
<path d="M15.1133 25.8104C15.172 26.7834 15.3475 27.7458 15.636 28.6768C16.3028 30.7788 17.4211 32.7095 18.9127 34.3337C20.5093 36.0889 22.4579 37.4878 24.6314 38.4394C27 39.4729 29.5572 40.0043 32.1415 40C34.7257 39.9956 37.2811 39.4556 39.6462 38.4141C41.8185 37.4542 43.7656 36.0499 45.3621 34.2915C46.8477 32.6605 47.9618 30.7267 48.6275 28.6234C49.2687 26.5863 49.4434 24.4311 49.139 22.3174C48.8471 20.2962 48.1349 18.3586 47.0482 16.6296C46.0438 15.0079 44.7559 13.5801 43.246 12.4143L27.8631 0.611561L27.8238 0.580654C26.8149 -0.194956 25.1176 -0.192145 24.0076 0.580654C22.8975 1.35345 22.757 2.6658 23.7546 3.48356L30.1703 8.70207L10.6142 8.72173H10.589C8.97311 8.72173 7.41908 9.78398 7.10996 11.1244C6.80084 12.4649 7.89119 13.6227 9.57168 13.6283L19.4747 13.6227L1.78748 27.1987L1.72004 27.2492C0.0507913 28.5279 -0.488766 30.6524 0.562241 31.9956C1.61325 33.3389 3.89793 33.3642 5.58403 31.9956L15.237 24.0962C15.1633 24.6648 15.122 25.2371 15.1133 25.8104ZM39.9188 29.3822C37.8384 31.4179 35.0448 32.56 32.1341 32.5647C29.2234 32.5694 26.4261 31.4364 24.3392 29.4074C23.3994 28.464 22.6738 27.3292 22.2119 26.0802C21.7784 24.8908 21.6114 23.6206 21.7229 22.3595C21.8281 21.1305 22.191 19.9375 22.7879 18.858C23.3894 17.7785 24.1927 16.8244 25.1541 16.0479C27.1366 14.4762 29.5914 13.6193 32.1213 13.6157C34.6513 13.6121 37.1084 14.4621 39.0954 16.0282C40.0564 16.8044 40.8588 17.7585 41.4588 18.8384C42.0573 19.9165 42.4221 21.1086 42.5294 22.337C42.6398 23.5972 42.4729 24.8662 42.0405 26.0549C41.5792 27.3029 40.8557 28.4375 39.9188 29.3822Z" fill="#9E9E9E"/>
</svg>
