<svg width="40" height="40" viewBox="0 0 40 40" fill="none" xmlns="http://www.w3.org/2000/svg">
<g clip-path="url(#clip0_3311_494)">
<path d="M15.3418 14.5598V10.7601C15.3418 10.44 15.461 10.2001 15.7385 10.0404L23.3104 5.64066C24.3409 5.04058 25.5701 4.76058 26.8384 4.76058C31.5956 4.76058 34.6083 8.48071 34.6083 12.4408C34.6083 12.7207 34.6083 13.0408 34.5686 13.3609L26.7192 8.72062C26.2437 8.44062 25.7675 8.44062 25.292 8.72062L15.3418 14.5604V14.5598ZM33.0222 29.3601V20.28C33.0222 19.72 32.7844 19.3197 32.3083 19.0397L22.3581 13.1999L25.6086 11.3195C25.8861 11.1598 26.1238 11.1598 26.4013 11.3195L33.9732 15.7192C36.1541 16.9996 37.6204 19.7194 37.6204 22.3589C37.6204 25.3988 35.8369 28.1988 33.0222 29.3589V29.3601ZM13.0026 21.3599L9.75214 19.44C9.47464 19.2803 9.35544 19.0397 9.35544 18.7203V9.92014C9.35544 5.64001 12.6059 2.40034 17.0068 2.40034C18.6718 2.40034 20.2176 2.96033 21.5262 3.96068L13.7166 8.52081C13.241 8.8008 13.0033 9.20043 13.0033 9.76107V21.3612L13.0026 21.3599ZM19.9997 25.4396L15.3412 22.8V17.2L19.9997 14.5604L24.6575 17.2V22.8L19.9997 25.4396ZM22.9932 37.6003C21.3282 37.6003 19.7824 37.0403 18.4738 36.0406L26.2834 31.4805C26.7589 31.2005 26.9974 30.8009 26.9974 30.2409V18.6408L30.2882 20.5606C30.5657 20.7204 30.6843 20.9609 30.6843 21.2804V30.0805C30.6843 34.36 27.3934 37.6003 22.9938 37.6003H22.9932ZM13.5974 28.6799L6.02547 24.2801C3.84523 22.9998 2.37827 20.28 2.37827 17.6404C2.37827 14.5604 4.20155 11.8006 7.01626 10.6405V19.7607C7.01626 20.3207 7.25402 20.721 7.72955 21.001L17.6406 26.8007L14.3901 28.6812C14.1126 28.8409 13.8749 28.8409 13.5974 28.6812V28.6799ZM13.1616 35.2401C8.68189 35.2401 5.39165 31.84 5.39165 27.6401C5.39165 27.32 5.43139 26.9999 5.47112 26.6798L13.2808 31.2399C13.7563 31.5199 14.2325 31.5199 14.708 31.2399L24.6582 25.4402V29.2405C24.6582 29.5606 24.539 29.8005 24.2615 29.9602L16.6896 34.36C15.6591 34.9601 14.4299 35.2401 13.1616 35.2401ZM22.9932 40C27.7901 40 31.7936 36.5599 32.7056 31.9997C37.1456 30.8397 40 26.6397 40 22.3596C40 19.5596 38.8105 16.8399 36.67 14.8799C36.8681 14.0399 36.9873 13.1999 36.9873 12.3599C36.9873 6.64037 32.3884 2.3596 27.0762 2.3596C26.0059 2.3596 24.9754 2.51932 23.9442 2.8795C22.1601 1.11998 19.7023 0 17.0068 0C12.2099 0 8.20636 3.43949 7.2944 8.00026C2.85444 9.16033 0 13.3603 0 17.6398C0 20.4397 1.18946 23.1595 3.32997 25.1195C3.13194 25.9595 3.01274 26.7994 3.01274 27.6394C3.01274 33.359 7.61163 37.6391 12.9238 37.6391C13.9941 37.6391 15.0246 37.4794 16.0558 37.1192C17.8393 38.8794 20.2977 39.9994 22.9932 39.9994V40Z" fill="#9E9E9E"/>
</g>
<defs>
<clipPath id="clip0_3311_494">
<rect width="40" height="40" fill="white"/>
</clipPath>
</defs>
</svg>
