<svg width="48" height="40" viewBox="0 0 48 40" fill="none" xmlns="http://www.w3.org/2000/svg">
<g clip-path="url(#clip0_3311_496)">
<path d="M0.618164 39.3821C1.99352 39.3821 4.05656 36.498 6.46344 36.0859C7.83879 36.0859 8.87031 38.9701 12.3087 39.3821C14.7156 39.3821 15.7471 36.498 18.154 36.498C20.5609 36.498 21.5924 39.3821 23.9993 39.3821C26.4061 39.3821 27.4377 36.498 29.8445 36.498C32.2514 36.498 33.2829 39.3821 35.6898 39.3821C38.0967 39.3821 39.1282 36.498 41.5351 36.498C43.9419 36.498 44.9735 39.3821 47.3803 39.3821" stroke="#9E9E9E" stroke-width="1.4957" stroke-linecap="round" stroke-linejoin="round"/>
<path d="M5.32283 36.5116L3.74805 33.5039L44.3211 30.8945C41.1303 33.7923 37.0317 36.1408 32.885 38.0636" stroke="#9E9E9E" stroke-width="1.4957" stroke-linecap="round" stroke-linejoin="round"/>
<path d="M19.9014 5.48669C26.8057 7.59485 36.4607 17.7785 39.7478 28.7245C37.9461 28.0172 36.5982 27.2961 34.0676 27.9416C31.6194 19.0489 27.2389 10.5545 19.9014 5.48669Z" stroke="#9E9E9E" stroke-width="1.4957" stroke-linecap="round" stroke-linejoin="round"/>
<path d="M7.0625 0.618042C15.9061 4.39487 28.0367 14.9082 30.2648 28.9099C20.0665 24.8034 12.3026 26.994 6.89746 30.3245C15.1427 19.8592 11.443 7.95881 7.0625 0.618042Z" stroke="#9E9E9E" stroke-width="1.4957" stroke-linecap="round" stroke-linejoin="round"/>
</g>
<defs>
<clipPath id="clip0_3311_496">
<rect width="48" height="40" fill="white"/>
</clipPath>
</defs>
</svg>
