<svg width="41" height="40" viewBox="0 0 41 40" fill="none" xmlns="http://www.w3.org/2000/svg">
<g clip-path="url(#clip0_3311_509)">
<path d="M33.7394 0H7.26055C3.25066 0 0 3.25266 0 7.26502V32.735C0 36.7473 3.25066 40 7.26055 40H33.7394C37.7493 40 41 36.7473 41 32.735V7.26502C41 3.25266 37.7493 0 33.7394 0Z" fill="#9E9E9E"/>
<path d="M9.23242 28.0499V10.4631C9.23242 10.335 9.28704 10.2747 9.39816 10.2747C9.69197 10.2747 9.96319 10.2747 10.3625 10.2615L11.6696 10.2332L13.1556 10.1993C13.6779 10.1905 14.1958 10.1861 14.7094 10.1861C16.1031 10.1861 17.2765 10.3601 18.2295 10.7081C19.0896 10.9995 19.8739 11.4792 20.5254 12.1121C21.0776 12.661 21.5043 13.3233 21.7759 14.0532C22.0305 14.7642 22.158 15.5143 22.1526 16.2695C22.1526 17.7382 21.8136 18.9493 21.1356 19.9029C20.4521 20.8588 19.4925 21.5822 18.3858 21.976C17.2313 22.4075 15.9468 22.5526 14.5361 22.5526C14.1331 22.5526 13.8487 22.5482 13.6829 22.5395C13.5172 22.5307 13.2698 22.5263 12.9409 22.5263V28.0179C12.9456 28.0514 12.9424 28.0856 12.9317 28.1177C12.9209 28.1498 12.9029 28.1789 12.879 28.2029C12.8551 28.2268 12.8259 28.2449 12.7938 28.2556C12.7618 28.2663 12.7276 28.2695 12.6941 28.2648H9.42453C9.29646 28.2704 9.23242 28.1969 9.23242 28.0499ZM12.9484 13.5727V19.3093C13.187 19.3281 13.4067 19.3376 13.6076 19.3376H14.5154C15.1831 19.3351 15.8465 19.229 16.4817 19.0228C17.0268 18.861 17.5138 18.5457 17.8848 18.1145C18.2427 17.6923 18.4216 17.105 18.4216 16.3524C18.4348 15.8221 18.2963 15.299 18.0223 14.8448C17.7333 14.4042 17.3157 14.0634 16.8263 13.8685C16.1871 13.6196 15.5042 13.5023 14.8186 13.5237C14.3779 13.5237 13.988 13.5281 13.649 13.5369C13.31 13.5457 13.0765 13.5595 12.9484 13.5783V13.5727Z" fill="white"/>
<path d="M32.7956 18.2672C32.2787 18.0012 31.7281 17.8066 31.1589 17.6886C30.5318 17.5445 29.8907 17.4706 29.2473 17.4681C28.899 17.4588 28.5512 17.5007 28.2151 17.5925C28.0011 17.6403 27.8109 17.7625 27.6784 17.9374C27.5888 18.0768 27.5411 18.239 27.5409 18.4048C27.546 18.566 27.6043 18.7211 27.7066 18.8457C27.8675 19.0339 28.064 19.1882 28.2848 19.2999C28.6772 19.5117 29.0816 19.7004 29.4959 19.8653C30.4192 20.1742 31.3014 20.5944 32.1232 21.1166C32.6831 21.4699 33.1465 21.9569 33.4717 22.5338C33.7453 23.0803 33.8823 23.6849 33.871 24.2959C33.8858 25.0992 33.6559 25.888 33.2118 26.5574C32.734 27.239 32.0704 27.7689 31.3002 28.0839C30.4652 28.4508 29.4337 28.6342 28.2057 28.6342C27.4254 28.642 26.6465 28.5681 25.8816 28.4137C25.2791 28.3031 24.6927 28.1183 24.1357 27.8634C24.0764 27.8318 24.0272 27.7841 23.9939 27.7257C23.9606 27.6674 23.9444 27.6008 23.9473 27.5336V24.5692C23.9443 24.5401 23.9491 24.5107 23.9614 24.4842C23.9737 24.4576 23.9929 24.4349 24.017 24.4184C24.0405 24.4051 24.0675 24.3993 24.0944 24.4016C24.1213 24.404 24.1468 24.4144 24.1677 24.4316C24.8228 24.8208 25.5345 25.1056 26.2771 25.2759C26.9339 25.4408 27.6077 25.5287 28.2848 25.5378C28.9264 25.5378 29.3985 25.4556 29.7012 25.291C29.8379 25.2283 29.9536 25.1273 30.0341 25.0002C30.1147 24.8731 30.1567 24.7253 30.1551 24.5748C30.1434 24.4363 30.1001 24.3022 30.0286 24.183C29.9571 24.0637 29.8593 23.9625 29.7426 23.887C29.4676 23.6671 28.9082 23.4007 28.0645 23.0879C27.2011 22.7872 26.3825 22.3706 25.6311 21.8497C25.0937 21.4754 24.6512 20.9803 24.3391 20.4043C24.0685 19.8622 23.9316 19.2632 23.9398 18.6573C23.9369 17.926 24.137 17.2083 24.518 16.5843C24.9504 15.9002 25.5711 15.3557 26.3054 15.0163C27.1115 14.613 28.1197 14.4113 29.3301 14.4113C30.0387 14.4055 30.7465 14.4559 31.4471 14.5621C31.9547 14.6267 32.451 14.7611 32.9218 14.9616C32.9592 14.9722 32.9937 14.9913 33.0224 15.0175C33.0512 15.0436 33.0735 15.0761 33.0875 15.1124C33.1065 15.1799 33.116 15.2496 33.1158 15.3197V18.0995C33.1174 18.1319 33.1107 18.1642 33.0961 18.1933C33.0816 18.2223 33.0598 18.2471 33.0329 18.2653C32.9962 18.284 32.9557 18.2939 32.9145 18.2942C32.8733 18.2946 32.8326 18.2853 32.7956 18.2672Z" fill="white"/>
</g>
<defs>
<clipPath id="clip0_3311_509">
<rect width="41" height="40" fill="white"/>
</clipPath>
</defs>
</svg>
