<svg width="41" height="40" viewBox="0 0 41 40" fill="none" xmlns="http://www.w3.org/2000/svg">
<g clip-path="url(#clip0_3311_505)">
<path d="M33.7396 0H7.26042C3.2506 0 0 3.25263 0 7.26496V32.735C0 36.7474 3.2506 40 7.26042 40H33.7396C37.7494 40 41 36.7474 41 32.735V7.26496C41 3.25263 37.7494 0 33.7396 0Z" fill="#9E9E9E"/>
<path d="M19.8675 24.005H13.5142L12.221 28.0238C12.2036 28.0971 12.1611 28.162 12.1009 28.2073C12.0407 28.2526 11.9665 28.2754 11.8913 28.2717H8.67281C8.48945 28.2717 8.4251 28.1709 8.47977 27.9691L13.9806 12.1162C14.0353 11.9509 14.0922 11.7629 14.1514 11.552C14.2231 11.1849 14.2598 10.8117 14.2608 10.4375C14.2571 10.4113 14.2595 10.3846 14.2679 10.3594C14.2763 10.3343 14.2904 10.3115 14.3091 10.2927C14.3278 10.274 14.3507 10.2599 14.3758 10.2515C14.4009 10.2431 14.4276 10.2407 14.4538 10.2444H18.8271C18.9558 10.2444 19.0293 10.2905 19.0475 10.3828L25.2915 27.9897C25.3461 28.1731 25.2892 28.2649 25.1206 28.2649H21.5451C21.4836 28.2716 21.4218 28.2557 21.3712 28.2202C21.3206 28.1846 21.2846 28.1318 21.2701 28.0717L19.8675 24.005ZM14.5034 20.5367H18.8494C18.7355 20.1697 18.6073 19.7566 18.465 19.2973C18.3226 18.8381 18.1666 18.3475 17.9969 17.8256L17.5015 16.2563C17.3363 15.7332 17.1849 15.229 17.0471 14.7435C16.9093 14.258 16.7857 13.813 16.6764 13.4085H16.649C16.4942 14.1517 16.3015 14.8866 16.0716 15.6102C15.8142 16.4364 15.5528 17.2803 15.2875 18.1418C15.0221 19.0033 14.7607 19.8011 14.5034 20.535V20.5367Z" fill="white"/>
<path d="M28.9993 13.1624C28.719 13.1736 28.4394 13.1255 28.1789 13.0212C27.9184 12.9169 27.6828 12.7589 27.4875 12.5573C27.2926 12.3467 27.1413 12.0996 27.0422 11.8303C26.9431 11.561 26.8982 11.2748 26.9101 10.9881C26.8999 10.7041 26.9497 10.4213 27.0562 10.1579C27.1628 9.89457 27.3237 9.6567 27.5285 9.45986C27.7313 9.2651 27.9707 9.11255 28.2329 9.01102C28.495 8.9095 28.7747 8.86102 29.0557 8.86841C29.7163 8.86841 30.2345 9.06556 30.6103 9.45986C30.8001 9.66496 30.9476 9.90552 31.0443 10.1678C31.1411 10.43 31.1852 10.7088 31.174 10.9881C31.1857 11.2759 31.1394 11.5632 31.0378 11.8328C30.9363 12.1023 30.7816 12.3487 30.583 12.5573C30.3752 12.7623 30.1271 12.9219 29.8546 13.026C29.582 13.1302 29.2908 13.1766 28.9993 13.1624ZM27.1014 27.9966V14.8342C27.1014 14.6633 27.1748 14.5864 27.3218 14.5864H30.7043C30.8512 14.5864 30.9246 14.669 30.9246 14.8342V27.9966C30.9246 28.1801 30.8512 28.2718 30.7043 28.2718H27.3491C27.184 28.2707 27.1014 28.1784 27.1014 27.9949V27.9966Z" fill="white"/>
</g>
<defs>
<clipPath id="clip0_3311_505">
<rect width="41" height="40" fill="white"/>
</clipPath>
</defs>
</svg>
