<svg width="40" height="40" viewBox="0 0 40 40" fill="none" xmlns="http://www.w3.org/2000/svg">
<path d="M20.6222 40H19.44C19.3851 39.9903 19.329 39.9903 19.2741 40C18.6381 40 18.0159 39.9169 17.3937 39.8339C16.2208 39.6858 15.0638 39.4309 13.9371 39.0725C12.0347 38.4644 10.2336 37.5755 8.59315 36.4354C5.25994 34.1138 2.70936 30.8336 1.27894 27.0289C0.592101 25.2083 0.1797 23.2954 0.0552966 21.3532C0.0541611 21.2447 0.035493 21.1372 0 21.0348V18.9583C0.0333631 18.8672 0.0520229 18.7715 0.0552966 18.6745C0.0552966 18.2038 0.131351 17.7401 0.19357 17.2902C0.496634 15.0714 1.17459 12.9203 2.19841 10.9292C3.73794 7.88762 6.02976 5.2914 8.85549 3.38793C11.6812 1.48446 14.9467 0.337176 18.3408 0.0553847C18.5724 0.0562814 18.8037 0.0377472 19.0322 0H21.0577C21.213 0.0263185 21.3704 0.0379186 21.5278 0.0346207C22.3304 0.100356 23.1288 0.20895 23.9198 0.359937C26.3936 0.8442 28.752 1.79809 30.8676 3.17011C32.5195 4.23334 34.0058 5.53477 35.2783 7.03236C37.5222 9.66436 39.0403 12.8378 39.682 16.2381C39.8758 17.2118 39.9822 18.2009 40 19.1936C40 19.2629 40 19.3321 40 19.3944V20.578C39.9924 20.6562 39.9924 20.735 40 20.8133C40 21.0071 40 21.194 40 21.3878C39.9119 22.6045 39.7176 23.8112 39.4193 24.9939C38.3593 29.0958 36.0238 32.7538 32.7503 35.439C29.4768 38.1241 25.4352 39.6972 21.2098 39.9308C21.0093 39.9308 20.8019 39.9308 20.5945 39.9931L20.6222 40Z" fill="#9E9E9E"/>
<path d="M14.8167 11.6837C14.8118 12.0794 14.8654 12.4735 14.9757 12.8535C15.1912 13.6036 15.5125 14.3191 15.9297 14.9784C16.8602 16.4506 17.9806 17.7935 19.2619 18.9722C19.3683 19.0714 19.4896 19.1531 19.6214 19.2145C19.6835 19.2461 19.7522 19.2625 19.8219 19.2625C19.8916 19.2625 19.9603 19.2461 20.0224 19.2145C20.1536 19.1562 20.2713 19.0714 20.368 18.9653C20.8036 18.5154 21.2322 18.0655 21.647 17.5809C22.2316 16.9219 22.7764 16.2285 23.2785 15.5045C23.7435 14.8466 24.1331 14.1384 24.4399 13.3934C24.7527 12.6559 24.8717 11.8505 24.7856 11.0539C24.6555 9.75958 24.0523 8.55909 23.0919 7.68305C22.5647 7.17582 21.9261 6.79949 21.2273 6.58431C20.5285 6.36913 19.7891 6.32109 19.0683 6.44407C17.8588 6.66852 16.7681 7.31569 15.9908 8.27022C15.2134 9.22476 14.7997 10.4246 14.8236 11.656L14.8167 11.6837Z" fill="white"/>
<path d="M27.5851 29.9915C27.2457 29.9965 26.9069 29.9617 26.5757 29.8876C25.5636 29.6964 24.6508 29.1549 23.9971 28.3579C23.5919 27.8509 23.2398 27.3035 22.9463 26.7244C22.6026 26.0413 22.3046 25.3361 22.0545 24.6133C21.7432 23.7438 21.4846 22.8562 21.2802 21.9554C21.2316 21.8542 21.2083 21.7427 21.2124 21.6304C21.2164 21.5182 21.2477 21.4086 21.3035 21.3112C21.3593 21.2138 21.438 21.1314 21.5327 21.0712C21.6274 21.011 21.7353 20.9748 21.8471 20.9657C22.5384 20.7442 23.2643 20.5504 23.9902 20.3843C25.1837 20.1031 26.4076 19.9729 27.6334 19.9966C27.9835 20.0099 28.3323 20.0469 28.6774 20.1074C29.6522 20.2766 30.5441 20.7632 31.2145 21.4917C31.7894 22.0561 32.2163 22.7537 32.4575 23.5228C32.6987 24.2919 32.7467 25.1087 32.5972 25.9008C32.3799 27.066 31.7571 28.1163 30.8395 28.8653C29.9218 29.6142 28.7688 30.0132 27.5851 29.9915Z" fill="white"/>
<path d="M12.0298 29.9915C12.3692 29.9965 12.7079 29.9617 13.0392 29.8876C14.0513 29.6964 14.9641 29.1549 15.6178 28.3579C16.023 27.8509 16.3751 27.3035 16.6686 26.7244C17.0123 26.0413 17.3103 25.3361 17.5604 24.6133C17.8717 23.7438 18.1303 22.8562 18.3347 21.9554C18.3833 21.8542 18.4066 21.7427 18.4025 21.6304C18.3985 21.5182 18.3672 21.4086 18.3114 21.3112C18.2556 21.2138 18.1769 21.1314 18.0822 21.0712C17.9875 21.011 17.8796 20.9748 17.7678 20.9657C17.0765 20.7442 16.3506 20.5504 15.6247 20.3843C14.4313 20.1031 13.2073 19.9729 11.9814 19.9966C11.6314 20.0099 11.2826 20.0469 10.9376 20.1074C9.96268 20.2766 9.07083 20.7632 8.40039 21.4917C7.82551 22.0561 7.39856 22.7537 7.15738 23.5228C6.9162 24.2919 6.86824 25.1087 7.01775 25.9008C7.23503 27.066 7.8578 28.1163 8.77543 28.8653C9.69307 29.6142 10.8462 30.0132 12.0298 29.9915Z" fill="white"/>
</svg>
