<svg width="24" height="25" viewBox="0 0 24 25" fill="none" xmlns="http://www.w3.org/2000/svg">
<path d="M17.0365 0H6.97548C2.6053 0 0 2.6053 0 6.97548V17.0245C0 21.4067 2.6053 24.012 6.97548 24.012H17.0245C21.3947 24.012 24 21.4067 24 17.0365V6.97548C24.012 2.6053 21.4067 0 17.0365 0ZM12.006 16.6643C9.4367 16.6643 7.34766 14.5753 7.34766 12.006C7.34766 9.4367 9.4367 7.34766 12.006 7.34766C14.5753 7.34766 16.6643 9.4367 16.6643 12.006C16.6643 14.5753 14.5753 16.6643 12.006 16.6643ZM19.1135 5.85892C19.0535 6.00299 18.9695 6.13506 18.8614 6.25512C18.7413 6.36317 18.6093 6.44721 18.4652 6.50724C18.3211 6.56727 18.1651 6.60329 18.009 6.60329C17.6848 6.60329 17.3847 6.48323 17.1565 6.25512C17.0485 6.13506 16.9645 6.00299 16.9044 5.85892C16.8444 5.71485 16.8084 5.55877 16.8084 5.40269C16.8084 5.24661 16.8444 5.09054 16.9044 4.94647C16.9645 4.79039 17.0485 4.67033 17.1565 4.55027C17.4327 4.27413 17.8529 4.14206 18.2371 4.22611C18.3211 4.23811 18.3932 4.26212 18.4652 4.29814C18.5372 4.32215 18.6093 4.35817 18.6813 4.4062C18.7413 4.44221 18.8014 4.50224 18.8614 4.55027C18.9695 4.67033 19.0535 4.79039 19.1135 4.94647C19.1736 5.09054 19.2096 5.24661 19.2096 5.40269C19.2096 5.55877 19.1736 5.71485 19.1135 5.85892Z" fill="#EACFDD"/>
</svg>
