<svg width="24" height="24" viewBox="0 0 24 24" fill="none" xmlns="http://www.w3.org/2000/svg">
<g clip-path="url(#clip0_3311_305)">
<path d="M20.4488 20.45H16.8929V14.8794C16.8929 13.5512 16.869 11.8409 15.0432 11.8409C13.1912 11.8409 12.9076 13.2879 12.9076 14.7818V20.4495H9.35177V8.99714H12.7654V10.5624H12.8114C13.1531 9.97827 13.6468 9.49773 14.24 9.17198C14.8332 8.84623 15.5036 8.68748 16.1798 8.71263C19.784 8.71263 20.4488 11.0836 20.4488 14.1677V20.45ZM5.33927 7.4314C4.93107 7.43149 4.53201 7.31052 4.19256 7.08379C3.85311 6.85707 3.58851 6.53476 3.43224 6.15765C3.27596 5.78053 3.23503 5.36554 3.31461 4.96516C3.39419 4.56477 3.59071 4.19698 3.87932 3.9083C4.16793 3.61961 4.53566 3.423 4.93601 3.34333C5.33636 3.26366 5.75134 3.3045 6.12848 3.4607C6.50562 3.6169 6.82797 3.88143 7.05476 4.22084C7.28155 4.56025 7.40261 4.9593 7.40261 5.36752C7.40261 5.91481 7.18523 6.4397 6.79829 6.82674C6.41136 7.21378 5.88654 7.43127 5.33927 7.4314ZM7.11718 20.4495H3.55767V8.99714H7.11764L7.11718 20.4495ZM22.2198 0.00180411H1.77055C1.54051 -0.000992256 1.31217 0.0416153 1.09862 0.127187C0.885065 0.212759 0.690487 0.339615 0.526025 0.500492C0.361563 0.661368 0.230447 0.853105 0.140184 1.06473C0.049921 1.27635 0.00228359 1.50369 0 1.73375V22.2666C0.00546405 22.7311 0.195054 23.1744 0.527122 23.4991C0.85919 23.8238 1.30658 24.0035 1.77101 23.9986H22.2198C22.6854 24.0049 23.1345 23.8259 23.4683 23.5011C23.802 23.1763 23.9931 22.7323 23.9995 22.2666V1.73007C23.9929 1.26469 23.8016 0.821013 23.4679 0.496645C23.1341 0.172277 22.6851 -0.00621789 22.2198 0.000423027" fill="#EACFDD"/>
</g>
<defs>
<clipPath id="clip0_3311_305">
<rect width="24" height="24" fill="white"/>
</clipPath>
</defs>
</svg>
