<svg width="128" height="128" viewBox="0 0 128 128" fill="none" xmlns="http://www.w3.org/2000/svg">
<path d="M84.8537 65.9732H109.867C109.44 90.8799 104.534 94.9865 89.2271 104.053C87.4671 105.12 86.8804 107.36 87.9471 109.173C89.0137 110.933 91.2537 111.52 93.0671 110.453C111.094 99.7865 117.387 93.2799 117.387 62.2398V33.4932C117.387 24.3732 109.974 17.0132 100.907 17.0132H84.9071C75.5204 17.0132 68.4271 24.1065 68.4271 33.4932V49.4932C68.3737 58.8798 75.4671 65.9732 84.8537 65.9732Z" fill="#667085" fill-opacity="0.3"/>
<path d="M27.147 65.9732H52.1603C51.7337 90.8799 46.827 94.9865 31.5203 104.053C29.7603 105.12 29.1737 107.36 30.2403 109.173C31.307 110.933 33.547 111.52 35.3603 110.453C53.387 99.7865 59.6803 93.2799 59.6803 62.2398V33.4932C59.6803 24.3732 52.267 17.0132 43.2003 17.0132H27.2003C17.7603 17.0132 10.667 24.1065 10.667 33.4932V49.4932C10.667 58.8798 17.7603 65.9732 27.147 65.9732Z" fill="#667085" fill-opacity="0.3"/>
</svg>
