<svg width="24" height="24" viewBox="0 0 24 24" fill="none" xmlns="http://www.w3.org/2000/svg">
<path d="M23.9803 11.2911C23.5723 4.33197 17.2491 -1.03133 9.96608 0.168518C4.95073 0.996411 0.931262 5.06386 0.151363 10.0792C-0.304578 12.9828 0.295371 15.7305 1.6032 17.9982L0.535322 21.9697C0.295353 22.8696 1.12322 23.6855 2.01111 23.4335L5.92261 22.3536C7.69838 23.3975 9.77411 23.9974 11.9938 23.9974C18.7609 23.9974 24.3762 18.0342 23.9803 11.2911ZM17.8611 16.4624C17.7531 16.6784 17.6211 16.8824 17.4531 17.0743C17.1531 17.3983 16.8292 17.6383 16.4692 17.7822C16.1093 17.9382 15.7133 18.0102 15.2934 18.0102C14.6815 18.0102 14.0216 17.8662 13.3376 17.5663C12.6417 17.2663 11.9579 16.8703 11.2739 16.3784C10.578 15.8745 9.9301 15.3105 9.30618 14.6986C8.68226 14.0747 8.13031 13.4148 7.62637 12.7309C7.13444 12.0469 6.73851 11.363 6.45055 10.6791C6.16258 9.99522 6.01862 9.33533 6.01862 8.71141C6.01862 8.30346 6.0906 7.90751 6.23458 7.54756C6.37857 7.1756 6.60656 6.83965 6.93051 6.53969C7.31447 6.15574 7.73438 5.97576 8.17833 5.97576C8.3463 5.97576 8.51425 6.01175 8.67023 6.08374C8.82621 6.15574 8.97022 6.26372 9.07821 6.4197L10.47 8.38743C10.578 8.54341 10.662 8.6754 10.71 8.80738C10.77 8.93936 10.794 9.05934 10.794 9.17933C10.794 9.32331 10.746 9.46731 10.662 9.61129C10.578 9.75527 10.47 9.89924 10.326 10.0432L9.87008 10.5231C9.79809 10.5951 9.77414 10.6671 9.77414 10.7631C9.77414 10.8111 9.78609 10.8591 9.79809 10.9071C9.82209 10.9551 9.83413 10.9911 9.84613 11.0271C9.95411 11.2311 10.1461 11.483 10.41 11.795C10.686 12.1069 10.974 12.4309 11.286 12.7429C11.6099 13.0668 11.9219 13.3548 12.2458 13.6307C12.5578 13.8947 12.8217 14.0747 13.0257 14.1827C13.0617 14.1947 13.0977 14.2187 13.1337 14.2307C13.1817 14.2547 13.2297 14.2547 13.2897 14.2547C13.3977 14.2547 13.4697 14.2187 13.5417 14.1467L13.9975 13.6908C14.1535 13.5348 14.2976 13.4268 14.4295 13.3548C14.5735 13.2708 14.7055 13.2228 14.8615 13.2228C14.9815 13.2228 15.1014 13.2468 15.2334 13.3068C15.3654 13.3668 15.5094 13.4388 15.6533 13.5468L17.6451 14.9626C17.8011 15.0706 17.909 15.2026 17.981 15.3465C18.041 15.5025 18.077 15.6465 18.077 15.8145C18.0051 16.0184 17.9571 16.2464 17.8611 16.4624Z" fill="#EACFDD"/>
</svg>
