<svg width="20" height="20" viewBox="0 0 20 20" fill="none" xmlns="http://www.w3.org/2000/svg">
<g clip-path="url(#clip0_296_3198)">
<path d="M17.0406 17.0414H14.0775V12.3993C14.0775 11.2925 14.0575 9.86721 12.536 9.86721C10.9927 9.86721 10.7563 11.073 10.7563 12.318V17.0411H7.79314V7.49742H10.6378V8.80182H10.6762C10.9609 8.31502 11.3723 7.91457 11.8667 7.64311C12.361 7.37166 12.9197 7.23936 13.4832 7.26032C16.4867 7.26032 17.0406 9.23611 17.0406 11.8062V17.0414ZM4.44939 6.19263C4.10922 6.1927 3.77667 6.0919 3.4938 5.90296C3.21092 5.71402 2.99043 5.44543 2.8602 5.13117C2.72997 4.81691 2.69586 4.47108 2.76217 4.13743C2.82849 3.80377 2.99226 3.49728 3.23277 3.25671C3.47327 3.01614 3.77972 2.8523 4.11334 2.7859C4.44697 2.71951 4.79279 2.75355 5.10707 2.88371C5.42135 3.01388 5.68997 3.23432 5.87897 3.51716C6.06796 3.80001 6.16884 4.13255 6.16884 4.47273C6.16884 4.92881 5.98769 5.36621 5.66525 5.68874C5.3428 6.01128 4.90545 6.19252 4.44939 6.19263ZM5.93098 17.0411H2.96472V7.49742H5.93137L5.93098 17.0411ZM18.5165 0.00129997H1.47546C1.28376 -0.00103033 1.09348 0.0344759 0.915516 0.105786C0.737554 0.177096 0.575406 0.282809 0.438354 0.416873C0.301302 0.550937 0.192039 0.710718 0.11682 0.887068C0.0416008 1.06342 0.00190299 1.25287 0 1.44459V18.5553C0.00455337 18.9424 0.162545 19.3118 0.439269 19.5824C0.715992 19.853 1.08882 20.0027 1.47584 19.9986H18.5165C18.9045 20.0038 19.2788 19.8547 19.5569 19.5841C19.835 19.3134 19.9943 18.9434 19.9996 18.5553V1.44152C19.9941 1.0537 19.8347 0.683974 19.5565 0.413667C19.2784 0.143361 18.9043 -0.00538502 18.5165 0.000149072" fill="white"/>
</g>
<defs>
<clipPath id="clip0_296_3198">
<rect width="20" height="20" fill="white"/>
</clipPath>
</defs>
</svg>
